<!-- Generated by IcoMoon.io -->
<svg version="1.1" xmlns="http://www.w3.org/2000/svg" width="121" height="32" viewBox="0 0 121 32">
<title>Logo-github</title>
<path fill="#fafafa" d="M41.021 21.818v-11.063h3.512v2.318c0.184-0.796 0.559-1.408 1.125-1.836 0.581-0.444 1.224-0.666 1.928-0.666 0.367 0 0.673 0.031 0.918 0.092v3.259c-0.413-0.046-0.765-0.069-1.056-0.069-1.943 0-2.915 1.232-2.915 3.695v4.269h-3.512zM58.677 20.51c-1.102 1.102-2.586 1.653-4.453 1.653s-3.359-0.551-4.476-1.653c-1.117-1.102-1.675-2.509-1.675-4.223s0.558-3.114 1.675-4.2c1.117-1.102 2.609-1.653 4.476-1.653s3.351 0.551 4.453 1.653c1.117 1.086 1.675 2.486 1.675 4.2s-0.558 3.121-1.675 4.223zM54.225 19.179c0.811 0 1.454-0.268 1.928-0.803s0.712-1.232 0.712-2.089-0.237-1.553-0.712-2.089c-0.474-0.536-1.117-0.803-1.928-0.803-0.826 0-1.477 0.268-1.951 0.803-0.459 0.536-0.689 1.232-0.689 2.089s0.23 1.553 0.689 2.089c0.474 0.536 1.125 0.803 1.951 0.803zM66.425 22.162c-1.806 0-3.244-0.536-4.315-1.607-1.071-1.086-1.607-2.509-1.607-4.269s0.535-3.175 1.607-4.246c1.071-1.071 2.509-1.607 4.315-1.607 1.637 0 2.968 0.406 3.994 1.216s1.607 1.913 1.744 3.305h-3.512c-0.26-1.040-0.995-1.561-2.203-1.561-0.765 0-1.362 0.252-1.79 0.757s-0.643 1.216-0.643 2.135c0 0.918 0.214 1.63 0.643 2.135s1.025 0.757 1.79 0.757c1.209 0 1.943-0.49 2.203-1.469h3.512c-0.138 1.362-0.719 2.448-1.744 3.259-1.025 0.796-2.356 1.194-3.994 1.194zM84.113 21.818h-4.292l-3.511-4.797v4.797h-3.512v-16.066h3.512v9.617l3.603-4.613h4.132l-4.407 5.233 4.476 5.83zM94.313 15.713c0 0.459-0.031 0.972-0.092 1.538h-8.171c0.031 0.719 0.276 1.278 0.735 1.676s1.079 0.597 1.86 0.597c1.071 0 1.759-0.344 2.065-1.033h3.443c-0.169 1.086-0.765 1.974-1.791 2.662-1.009 0.673-2.249 1.010-3.718 1.010-1.882 0-3.367-0.52-4.453-1.561s-1.63-2.479-1.63-4.315c0-1.806 0.543-3.229 1.63-4.269 1.087-1.056 2.532-1.584 4.338-1.584 1.713 0 3.106 0.49 4.177 1.469s1.607 2.249 1.607 3.81zM86.050 15.070h4.797c-0.015-0.734-0.222-1.301-0.62-1.698s-0.972-0.597-1.721-0.597-1.346 0.214-1.79 0.643c-0.428 0.413-0.651 0.964-0.666 1.652zM100.707 19.087c0.489 0 0.895-0.023 1.217-0.069v2.8c-0.673 0.122-1.454 0.184-2.341 0.184-0.398 0-0.75-0.023-1.056-0.069s-0.65-0.145-1.033-0.298c-0.383-0.168-0.696-0.39-0.941-0.666s-0.459-0.673-0.643-1.194c-0.168-0.52-0.252-1.132-0.252-1.836v-4.407h-1.744v-2.777h1.744v-3.282h3.512v3.282h2.502v2.777h-2.502v3.672c0 0.75 0.129 1.255 0.39 1.515 0.26 0.245 0.643 0.367 1.148 0.367zM116.247 10.755h3.489v15.653h-3.512v-5.554h0.023v-0.597c-0.306 0.551-0.78 1.002-1.423 1.354-0.627 0.337-1.324 0.505-2.089 0.505-1.607 0-2.876-0.543-3.809-1.63s-1.4-2.486-1.4-4.2c0-1.683 0.481-3.076 1.446-4.177s2.234-1.652 3.81-1.652c0.78 0 1.476 0.168 2.088 0.505s1.071 0.796 1.377 1.377v-1.584zM113.745 19.202c0.841 0 1.492-0.275 1.951-0.826s0.688-1.247 0.688-2.089c0-0.826-0.229-1.515-0.688-2.066s-1.11-0.826-1.951-0.826c-0.796 0-1.439 0.268-1.928 0.803-0.474 0.536-0.711 1.232-0.711 2.089s0.237 1.561 0.711 2.112c0.489 0.536 1.132 0.803 1.928 0.803z"></path>
<path fill="#000" d="M106.297 21.382c-0.428 0.444-0.964 0.666-1.607 0.666s-1.185-0.222-1.629-0.666c-0.428-0.444-0.643-0.972-0.643-1.584 0-0.627 0.215-1.155 0.643-1.584 0.444-0.444 0.987-0.666 1.629-0.666s1.178 0.222 1.607 0.666c0.444 0.428 0.666 0.956 0.666 1.584 0 0.612-0.222 1.14-0.666 1.584z"></path>
<path fill="#0d114f" d="M5.738 0h20.402c3.169 0 5.738 2.569 5.738 5.738v20.402c0 3.169-2.569 5.738-5.738 5.738h-20.402c-3.169 0-5.738-2.569-5.738-5.738v-20.402c0-3.169 2.569-5.738 5.738-5.738z"></path>
<path fill="#fafafa" d="M24.188 23.573h-2.843c-0.119 0-0.217-0.093-0.227-0.211-0.003-0.037-0.007-0.074-0.011-0.109-0.163-1.486-1.762-2.762-3.246-2.581-1.083 0.132-1.98 0.949-3.065 1.072-0.731 0.083-1.369 0.045-2.098-0.098-0.639-0.125-1.256-0.354-1.824-0.673-1.337-0.751-2.055-1.524-2.721-2.69-0.385-0.674-0.66-1.413-0.76-2.183-0.083-0.637-0.078-1.199-0.008-1.818 0.106-0.945 0.409-1.865 0.903-2.677 0.694-1.141 1.444-1.85 2.666-2.514 0.517-0.281 1.074-0.487 1.649-0.613 1.457-0.32 2.4-0.226 3.816 0.218 0.788 0.247 1.643 0.776 2.371 1.466 1.591 1.51 1.713 3.879 1.753 6.072 0.004 0.203-0.182 0.357-0.382 0.321-0.983-0.178-1.689-0.192-2.655-0.038-0.259 0.041-0.472-0.227-0.402-0.479 0.030-0.11 0.054-0.217 0.072-0.323 0.285-1.698-0.877-3.636-2.59-3.803-0.972-0.095-1.935 0.302-2.648 1.098-0.426 0.401-0.661 1.031-0.735 1.702-0.192 1.739 1.23 3.421 2.978 3.504 0.333 0.016 0.655-0.033 0.984-0.144 1.037-0.351 2.047-0.877 3.139-0.794 3.284 0.247 5.59 1.728 6.197 5.941 0.027 0.189-0.121 0.357-0.312 0.357z"></path>
</svg>
